<svg width="33" height="32" viewBox="0 0 33 32" fill="none" xmlns="http://www.w3.org/2000/svg">
<path d="M4.5 4H28.5V28H4.5V4ZM10.8067 24.0533C11.34 25.1867 12.3933 26.12 14.1933 26.12C16.1933 26.12 17.5667 25.0533 17.5667 22.72V15.0133H15.3V22.6667C15.3 23.8133 14.8333 24.1067 14.1 24.1067C13.3267 24.1067 13.0067 23.5733 12.6467 22.9467L10.8067 24.0533ZM18.78 23.8133C19.4467 25.12 20.7933 26.12 22.9 26.12C25.0333 26.12 26.6333 25.0133 26.6333 22.9733C26.6333 21.0933 25.5533 20.2533 23.6333 19.4267L23.0733 19.1867C22.1 18.7733 21.6867 18.4933 21.6867 17.8267C21.6867 17.28 22.1 16.8533 22.7667 16.8533C23.4067 16.8533 23.8333 17.1333 24.22 17.8267L25.9667 16.6667C25.2333 15.3867 24.1933 14.8933 22.7667 14.8933C20.7533 14.8933 19.46 16.1733 19.46 17.8667C19.46 19.7067 20.54 20.5733 22.1667 21.2667L22.7267 21.5067C23.7667 21.96 24.38 22.24 24.38 23.0133C24.38 23.6533 23.78 24.12 22.8467 24.12C21.74 24.12 21.1 23.5467 20.62 22.7467L18.78 23.8133Z" fill="black"/>
</svg>
